<svg viewBox="0 0 640 234" xmlns="http://www.w3.org/2000/svg" font-family="Avenir Next, Arial, sans-serif">
<text x="0" y="10" font-size="13" font-weight="700" fill="#0D2226">Demand Score</text>
<text x="640" y="10" font-size="13" font-weight="700" fill="#0D2226" text-anchor="end">62%</text>
<text x="602" y="10" font-size="11.5" font-weight="700" fill="#0F5C63" text-anchor="end">▲ 4</text>
<rect x="0" y="20" width="570" height="14" rx="7" fill="#0D2226" fill-opacity="0.08"/>
<rect x="0" y="20" width="353.4" height="14" rx="7" fill="#0F5C63"/>
<line x1="330.6" y1="17" x2="330.6" y2="37" stroke="#1C2B2E" stroke-opacity="0.55" stroke-width="2"/>
<text x="0" y="66" font-size="13" font-weight="700" fill="#0D2226">Seller Strength Score</text>
<text x="640" y="66" font-size="13" font-weight="700" fill="#0D2226" text-anchor="end">60%</text>
<text x="602" y="66" font-size="11.5" font-weight="700" fill="#0F5C63" text-anchor="end">▲ 8</text>
<rect x="0" y="76" width="570" height="14" rx="7" fill="#0D2226" fill-opacity="0.08"/>
<rect x="0" y="76" width="342.0" height="14" rx="7" fill="#0F5C63"/>
<line x1="296.4" y1="73" x2="296.4" y2="93" stroke="#1C2B2E" stroke-opacity="0.55" stroke-width="2"/>
<text x="0" y="122" font-size="13" font-weight="700" fill="#0D2226">Market Speed Score</text>
<text x="640" y="122" font-size="13" font-weight="700" fill="#0D2226" text-anchor="end">55%</text>
<text x="602" y="122" font-size="11.5" font-weight="700" fill="#B5544A" text-anchor="end">▼ 3</text>
<rect x="0" y="132" width="570" height="14" rx="7" fill="#0D2226" fill-opacity="0.08"/>
<rect x="0" y="132" width="313.5" height="14" rx="7" fill="#0F5C63"/>
<line x1="330.6" y1="129" x2="330.6" y2="149" stroke="#1C2B2E" stroke-opacity="0.55" stroke-width="2"/>
<text x="0" y="178" font-size="13" font-weight="700" fill="#0D2226">Rate Environment Score</text>
<text x="640" y="178" font-size="13" font-weight="700" fill="#0D2226" text-anchor="end">42%</text>
<text x="602" y="178" font-size="11.5" font-weight="700" fill="#0F5C63" text-anchor="end">▲ 7</text>
<rect x="0" y="188" width="570" height="14" rx="7" fill="#0D2226" fill-opacity="0.08"/>
<rect x="0" y="188" width="239.4" height="14" rx="7" fill="#0F5C63"/>
<line x1="199.5" y1="185" x2="199.5" y2="205" stroke="#1C2B2E" stroke-opacity="0.55" stroke-width="2"/>
<text x="0" y="232" font-size="10" fill="#1C2B2E" fill-opacity="0.5">Dark tick marks last week's score for comparison</text>
</svg>