<svg viewBox="0 0 640 380" xmlns="http://www.w3.org/2000/svg" font-family="Avenir Next, Arial, sans-serif">
<text x="0" y="26" font-size="12.5" font-weight="600" fill="#0D2226">St. Mary's County</text>
<rect x="170" y="13" width="35.0" height="18" rx="3" fill="#0f5c63"/>
<text x="213.0" y="26" font-size="12" font-weight="700" fill="#0D2226">14d</text>
<text x="638" y="26" font-size="11" fill="#1C2B2E" fill-opacity="0.55" text-anchor="end">13 closings</text>
<text x="0" y="60" font-size="12.5" font-weight="600" fill="#0D2226">Calvert County</text>
<rect x="170" y="47" width="37.5" height="18" rx="3" fill="#125d63"/>
<text x="215.5" y="60" font-size="12" font-weight="700" fill="#0D2226">15d</text>
<text x="638" y="60" font-size="11" fill="#1C2B2E" fill-opacity="0.55" text-anchor="end">12 closings</text>
<text x="0" y="94" font-size="12.5" font-weight="600" fill="#0D2226">Cecil County</text>
<rect x="170" y="81" width="50.0" height="18" rx="3" fill="#155d63"/>
<text x="228.0" y="94" font-size="12" font-weight="700" fill="#0D2226">20d</text>
<text x="638" y="94" font-size="11" fill="#1C2B2E" fill-opacity="0.55" text-anchor="end">10 closings</text>
<text x="0" y="128" font-size="12.5" font-weight="600" fill="#0D2226">Montgomery County</text>
<rect x="170" y="115" width="62.5" height="18" rx="3" fill="#185d63"/>
<text x="240.5" y="128" font-size="12" font-weight="700" fill="#0D2226">25d</text>
<text x="638" y="128" font-size="11" fill="#1C2B2E" fill-opacity="0.55" text-anchor="end">93 closings</text>
<text x="0" y="162" font-size="12.5" font-weight="600" fill="#0D2226">Anne Arundel County</text>
<rect x="170" y="149" width="65.0" height="18" rx="3" fill="#195d63"/>
<text x="243.0" y="162" font-size="12" font-weight="700" fill="#0D2226">26d</text>
<text x="638" y="162" font-size="11" fill="#1C2B2E" fill-opacity="0.55" text-anchor="end">86 closings</text>
<text x="0" y="196" font-size="12.5" font-weight="600" fill="#0D2226">Worcester County</text>
<rect x="170" y="183" width="127.5" height="18" rx="3" fill="#4a6163"/>
<text x="305.5" y="196" font-size="12" font-weight="700" fill="#0D2226">51d</text>
<text x="638" y="196" font-size="11" fill="#1C2B2E" fill-opacity="0.55" text-anchor="end">27 closings</text>
<text x="0" y="230" font-size="12.5" font-weight="600" fill="#0D2226">Talbot County</text>
<rect x="170" y="217" width="130.0" height="18" rx="3" fill="#4d6063"/>
<text x="308.0" y="230" font-size="12" font-weight="700" fill="#0D2226">52d</text>
<text x="638" y="230" font-size="11" fill="#1C2B2E" fill-opacity="0.55" text-anchor="end">13 closings</text>
<text x="0" y="264" font-size="12.5" font-weight="600" fill="#0D2226">Washington County</text>
<rect x="170" y="251" width="132.5" height="18" rx="3" fill="#506063"/>
<text x="310.5" y="264" font-size="12" font-weight="700" fill="#0D2226">53d</text>
<text x="638" y="264" font-size="11" fill="#1C2B2E" fill-opacity="0.55" text-anchor="end">23 closings</text>
<text x="0" y="298" font-size="12.5" font-weight="600" fill="#0D2226">Wicomico County</text>
<rect x="170" y="285" width="167.5" height="18" rx="3" fill="#8a6a63"/>
<text x="345.5" y="298" font-size="12" font-weight="700" fill="#0D2226">67d</text>
<text x="638" y="298" font-size="11" fill="#1C2B2E" fill-opacity="0.55" text-anchor="end">11 closings</text>
<text x="0" y="332" font-size="12.5" font-weight="600" fill="#0D2226">Garrett County</text>
<rect x="170" y="319" width="232.5" height="18" rx="3" fill="#c06c64"/>
<text x="410.5" y="332" font-size="12" font-weight="700" fill="#0D2226">93d</text>
<text x="638" y="332" font-size="11" fill="#1C2B2E" fill-opacity="0.55" text-anchor="end">10 closings</text>
<text x="0" y="358" font-size="10" fill="#1C2B2E" fill-opacity="0.5">Average days on market for closed sales; teal = faster, red = slower.</text>
<text x="0" y="372" font-size="10" fill="#1C2B2E" fill-opacity="0.5">Dorchester (103d) and Somerset (52d) excluded above: samples of 2 and 3 closings, too small to read as trend.</text>
</svg>
