<svg viewBox="0 0 640 300" xmlns="http://www.w3.org/2000/svg" font-family="Avenir Next, Arial, sans-serif">
<line x1="50" y1="240.0" x2="620" y2="240.0" stroke="#0D2226" stroke-opacity="0.08" stroke-width="1"/>
<text x="42" y="244.0" font-size="10" fill="#1C2B2E" fill-opacity="0.5" text-anchor="end">0</text>
<line x1="50" y1="185.0" x2="620" y2="185.0" stroke="#0D2226" stroke-opacity="0.08" stroke-width="1"/>
<text x="42" y="189.0" font-size="10" fill="#1C2B2E" fill-opacity="0.5" text-anchor="end">525</text>
<line x1="50" y1="130.0" x2="620" y2="130.0" stroke="#0D2226" stroke-opacity="0.08" stroke-width="1"/>
<text x="42" y="134.0" font-size="10" fill="#1C2B2E" fill-opacity="0.5" text-anchor="end">1050</text>
<line x1="50" y1="75.0" x2="620" y2="75.0" stroke="#0D2226" stroke-opacity="0.08" stroke-width="1"/>
<text x="42" y="79.0" font-size="10" fill="#1C2B2E" fill-opacity="0.5" text-anchor="end">1575</text>
<line x1="50" y1="20.0" x2="620" y2="20.0" stroke="#0D2226" stroke-opacity="0.08" stroke-width="1"/>
<text x="42" y="24.0" font-size="10" fill="#1C2B2E" fill-opacity="0.5" text-anchor="end">2100</text>
<rect x="58.5" y="177.04" width="45.6" height="62.96" fill="#0D2226" fill-opacity="0.25" rx="2"/>
<rect x="108.4" y="120.89" width="45.6" height="119.11" fill="#0F5C63" rx="2"/>
<text x="81.3" y="171.0" font-size="10.5" fill="#1C2B2E" fill-opacity="0.6" text-anchor="middle">601</text>
<text x="131.2" y="114.9" font-size="11" font-weight="700" fill="#0D2226" text-anchor="middle">1,137</text>
<text x="121.2" y="262.0" font-size="11" font-weight="600" fill="#0D2226" text-anchor="middle">Closings</text>
<rect x="201.1" y="128.53" width="45.6" height="111.47" fill="#0D2226" fill-opacity="0.25" rx="2"/>
<rect x="250.9" y="28.44" width="45.6" height="211.56" fill="#0F5C63" rx="2"/>
<text x="223.9" y="122.5" font-size="10.5" fill="#1C2B2E" fill-opacity="0.6" text-anchor="middle">1,064</text>
<text x="273.7" y="22.4" font-size="11" font-weight="700" fill="#0D2226" text-anchor="middle">2,019</text>
<text x="263.8" y="262.0" font-size="11" font-weight="600" fill="#0D2226" text-anchor="middle">New Listings</text>
<rect x="343.6" y="200.81" width="45.6" height="39.19" fill="#0D2226" fill-opacity="0.25" rx="2"/>
<rect x="393.4" y="188.67" width="45.6" height="51.33" fill="#0F5C63" rx="2"/>
<text x="366.4" y="194.8" font-size="10.5" fill="#1C2B2E" fill-opacity="0.6" text-anchor="middle">374</text>
<text x="416.2" y="182.7" font-size="11" font-weight="700" fill="#0D2226" text-anchor="middle">490</text>
<text x="406.2" y="262.0" font-size="11" font-weight="600" fill="#0D2226" text-anchor="middle">Pending Contracts</text>
<rect x="486.1" y="118.69" width="45.6" height="121.31" fill="#0D2226" fill-opacity="0.25" rx="2"/>
<rect x="535.9" y="21.05" width="45.6" height="218.95" fill="#0F5C63" rx="2"/>
<text x="508.9" y="112.7" font-size="10.5" fill="#1C2B2E" fill-opacity="0.6" text-anchor="middle">1,158</text>
<text x="558.7" y="15.1" font-size="11" font-weight="700" fill="#0D2226" text-anchor="middle">2,090</text>
<text x="548.8" y="262.0" font-size="11" font-weight="600" fill="#0D2226" text-anchor="middle">Price Reductions</text>
<rect x="50" y="286" width="12" height="12" fill="#0D2226" fill-opacity="0.25" rx="2"/>
<text x="66" y="296" font-size="10.5" fill="#1C2B2E">Week of 8/17–8/23</text>
<rect x="200" y="286" width="12" height="12" fill="#0F5C63" rx="2"/>
<text x="216" y="296" font-size="10.5" fill="#1C2B2E">Week of 8/24–8/30</text>
</svg>
